Patient4_TMGait_0pt4_03_left_26_EMG.mot
version=1
nRows=13
nColumns=33
inDegrees=no
endheader
time	1LAddLong	2LGlutMax	3LGlutMed	4LIliopsoas	5LSemiMemb	6LBicFemLong	7LRecFem	8LVastMed	9LVastLat	10LGasMed	11LTibAnt	12lTibPost	13LPeroneusLong	14LSol	15LExtDigLong	16LFlexDigLong	17RAddLong	18RGlutMax	19RGlutMed	20RIliopsoas	21RSemiMemb	22RBicFemLong	23RRecFem	24RVastMed	25RVastLat	26RGasMed	27RTibAnt	28RTibPost	29RPeroneusLong	30RSol	31RExtDigLong	32RFlexDigLong
34.702	0.036011	-0.24307	-0.035095	-0.005035	-0.066376	0.24948	-0.01236	0.006409	-0.31967	0.037689	0.12375	0.03891	-0.16174	0.015869	0.10712	0.001984	-0.018311	0.096588	0.13657	0.01297	-0.023499	-0.066681	0.37598	-0.036163	-0.00473	0.008545	-0.004883	-0.00885	0.036469	-0.023804	-0.006409	-0.01297
34.703	0.018921	-0.16357	-0.10849	-0.007782	-0.074158	-0.02655	-0.064545	-0.003662	-0.19226	0.021973	0.10498	0.049438	0.12604	0.016327	-0.043182	0.00412	-0.000305	0.061493	-0.001221	-0.053711	-0.014496	-0.080261	0.37018	-0.029755	-0.00473	0.007782	0.036011	-0.001373	-0.029602	-0.058594	-0.001831	-0.009766
34.704	0.00946	-0.074158	0.055084	-0.015564	-0.051575	-0.31387	-0.092163	0.000458	-0.074463	0.001221	0.077362	0.028687	0.095673	-0.007629	0.005951	0.026398	0.009155	0.023499	-0.086517	-0.1239	-0.009155	-0.090027	0.37521	-0.02121	-0.004578	0.01709	0.095825	-0.002747	-0.14313	-0.097504	-0.002289	-0.015411
34.705	0.016937	-0.061493	0.2272	0.005341	-0.006256	-0.2327	-0.10422	-0.005341	-0.041809	-0.027466	0.11246	0.021057	0.30716	-0.02121	-0.062408	0.034637	0.001221	-0.013733	-0.23041	-0.093384	-0.024719	-0.081177	0.35431	-0.034485	-0.000153	0.018311	0.096436	-0.00885	-0.17731	-0.057831	-0.003052	-0.018768
34.706	0.018158	-0.053406	0.11292	0.00412	0.021515	-0.15579	-0.29495	-0.002441	-0.050659	-0.010681	0.14771	0.024414	0.15152	-0.004425	-0.15259	0.036469	-0.006256	-0.092316	-0.4512	-0.082092	-0.034027	-0.044708	0.34683	-0.040436	-0.001831	0.013428	0.017242	-0.006409	-0.083771	-0.011597	-0.003204	-0.014343
34.707	0.016937	-0.02121	0.17059	0	0.02594	-0.089264	-0.35782	-0.006104	-0.02243	-0.005951	0.079498	0.018768	-0.121	-0.007019	0.098419	0.027161	-0.048523	-0.091858	-0.22903	-0.067291	-0.025787	0.091095	0.31052	-0.015106	-0.010986	-0.00061	-0.021667	-0.007935	-0.002594	-0.072479	-0.003357	-0.01297
34.708	0.005188	0.014801	0.087585	-0.003357	-0.022125	-0.028534	-0.31494	-0.007172	-0.03479	-0.02533	-0.036011	0.027161	-0.15778	0.036926	0.085297	0.033569	-0.068359	-0.10223	-0.054321	0.041046	-0.011444	0.093689	0.31769	-0.057831	-0.012512	-0.003662	-0.042114	0.004578	0.14069	-0.0354	0.001678	-0.006409
34.709	0.008087	0.093689	0.20218	-0.010986	-0.015869	-0.02121	-0.28427	-0.00351	-0.05249	-0.049438	-0.13657	0.018616	0.13199	0.12695	-0.035706	0.045013	-0.064087	-0.1294	-0.043488	0.1326	-0.01709	0.028534	0.34637	-0.050201	-0.011749	0.000458	-0.017853	-0.009918	0.18356	0.16495	-0.001678	-0.016022
34.71	0.011597	0.06134	0.068207	0.001984	0.022583	-0.088348	-0.31403	0.014496	-0.088959	-0.020599	-0.097504	0.02594	0.20416	0.033722	-0.12878	0.03067	-0.063934	-0.19134	-0.092926	0.1329	-0.018158	-0.001068	0.35889	-0.046844	-0.023193	0.000763	-0.005341	-0.00473	0.14969	0.242	0.000153	-0.014191
34.711	0.012665	0.10284	-0.028229	0.011139	-0.020905	-0.069427	-0.33295	0.047607	-0.11231	0.001678	-0.049896	0.016479	-0.046082	-0.006104	-0.092163	0.026093	-0.063782	-0.19882	-0.18478	0.016632	-0.027161	-0.02655	0.34302	-0.060425	-0.028076	0	0.019531	-0.006409	0.092468	0.1416	-0.001678	-0.007172
34.712	0.01236	0.12665	-0.070343	0.019836	-0.06958	0.002136	-0.23621	0.053253	-0.02243	-0.002441	-0.021057	0.008087	-0.1799	0.036774	0.035095	0.020447	-0.058899	-0.27023	-0.15869	-0.016785	-0.031586	-0.01709	0.30411	-0.062103	-0.03006	0.004883	0.013275	-0.001526	0.072632	0.038757	-0.000305	-0.014648
34.713	0.0177	0.15121	-0.085297	-0.003662	-0.093231	0.025635	-0.11368	0.030212	0.11658	0.007782	-0.01297	0.013428	-0.10223	0.005341	-0.016479	0.042419	-0.053101	-0.27496	-0.13596	-0.005646	-0.021973	-0.011749	0.35706	-0.08255	-0.027924	-0.007172	0.005188	-0.006866	0.071106	-0.093079	-0.00061	0.000458
34.714	0.023651	0.077057	-0.26733	-0.00824	-0.035095	0.006714	-0.24902	0.016785	0.14252	0.008392	-0.02655	0.016937	-0.31525	0.00061	-0.01236	0.032043	-0.012665	-0.25604	-0.17807	0.013885	-0.011749	-0.012054	0.29648	-0.067902	-0.047913	0.000305	0.065155	-0.001221	0.06134	-0.15884	-0.000763	-0.017853
